<?xml version="1.0" standalone="no"?>
<!DOCTYPE svg PUBLIC "-//W3C//DTD SVG 1.1//EN" "http://www.w3.org/Graphics/SVG/1.1/DTD/svg11.dtd" >
<svg xmlns="http://www.w3.org/2000/svg">
<metadata></metadata>
<defs>
<font id="hans_kendrickregular" horiz-adv-x="1249" >
<font-face units-per-em="2048" ascent="1638" descent="-410" />
<missing-glyph horiz-adv-x="573" />
<glyph horiz-adv-x="0" />
<glyph horiz-adv-x="682" />
<glyph unicode=" "  horiz-adv-x="573" />
<glyph unicode="&#x09;" horiz-adv-x="573" />
<glyph unicode="&#xa0;" horiz-adv-x="573" />
<glyph unicode="!" horiz-adv-x="602" d="M205 76q0 40 28 68t68 28t68 -28t28 -68t-28 -68t-68 -28t-68 28t-28 68zM229 352v1184h144v-1184h-144z" />
<glyph unicode="&#x22;" horiz-adv-x="751" d="M123 918v589h158v-589h-158zM471 918v589h158v-589h-158z" />
<glyph unicode="#" horiz-adv-x="1443" d="M123 336l18 129h221l68 475h-221l18 129h219l48 336h153l-47 -336h346l47 336h154l-47 -336h221l-18 -129h-222l-65 -475h219l-16 -129h-222l-47 -336h-153l47 336h-346l-47 -336h-154l47 336h-221zM516 465h346l66 475h-346z" />
<glyph unicode="$" horiz-adv-x="1282" d="M123 332h174q30 -104 119 -160q82 -49 194 -49v543l-114 30q-324 86 -324 336q0 184 131 291q119 94 307 100v197h88v-197q173 -6 289 -82q131 -87 158 -247h-170q-24 89 -105 139q-74 44 -172 47v-471l131 -37q330 -91 330 -364q0 -198 -147 -318q-126 -102 -314 -108 v-199h-88v197h-4q-181 0 -311 86q-138 91 -172 266zM350 1049q0 -141 195 -197l65 -18v446q-111 0 -182 -59q-78 -63 -78 -172zM698 123q114 6 191 65q92 71 92 205q0 173 -211 228l-72 18v-516z" />
<glyph unicode="%" horiz-adv-x="1390" d="M123 0h170l973 1536h-170zM123 1255q0 125 88.5 213t212.5 88t212.5 -88t88.5 -213t-88.5 -213t-212.5 -88t-212.5 88t-88.5 213zM250 1255q0 -72 51 -123t123 -51t123 51t51 123t-51 123.5t-123 51.5t-123 -51.5t-51 -123.5zM664 281q0 124 89 212.5t214 88.5 q123 0 212 -88.5t89 -212.5t-89 -212.5t-212 -88.5q-125 0 -214 88.5t-89 212.5zM791 281q0 -72 52 -123.5t124 -51.5q71 0 122.5 51.5t51.5 123.5t-51.5 123t-122.5 51q-72 0 -124 -51t-52 -123z" />
<glyph unicode="&#x26;" horiz-adv-x="1470" d="M123 362q0 80 22 145t66.5 116t96 89.5t124.5 78.5q-78 84 -121 158t-43 163q0 148 103.5 229.5t257.5 81.5q66 0 128.5 -18t115 -52t84.5 -90.5t32 -125.5q0 -56 -21 -107.5t-50.5 -88.5t-77.5 -74t-87 -60.5t-94 -52.5l340 -371q21 36 43.5 84.5t37 81.5t39.5 93.5 t34 82.5h168q-8 -18 -46.5 -111t-54.5 -129.5t-49 -102.5t-65 -116l242 -266h-195l-139 152q-161 -172 -391 -172h-62q-87 0 -165.5 25.5t-139.5 72t-97 120.5t-36 164zM297 371q0 -116 82.5 -181t202.5 -65q110 0 186 29t145 106l-385 424q-58 -33 -93.5 -58.5t-70.5 -63 t-51 -84.5t-16 -107zM436 1112q0 -71 33 -128.5t96 -125.5q38 20 49 25.5t47.5 26.5t51 33t41 35.5t38 43.5t21.5 47.5t10 56.5q0 75 -57.5 121.5t-134.5 46.5q-84 0 -139.5 -49t-55.5 -133z" />
<glyph unicode="'" horiz-adv-x="319" d="M20 1153l127 410l152 -52l-178 -397z" />
<glyph unicode="(" horiz-adv-x="890" d="M184 772q0 72 5.5 152t20.5 182.5t39 197t65 187t94 160t130 109.5t169 42v-143q-77 0 -140 -51t-102.5 -135.5t-68 -181t-42.5 -202t-20 -182t-6 -135.5q0 -49 4 -112t15 -150t28 -170t47 -167t68 -146t94 -101t123 -39v-143q-92 0 -169 42t-130 109t-94 159.5 t-65 186.5t-39 197t-20.5 182.5t-5.5 151.5z" />
<glyph unicode=")" horiz-adv-x="890" d="M184 -113q67 0 123 39t94 101t68 146t47 167t28 170t15 150t4 112q0 59 -6 135.5t-20 182t-42.5 202t-68 181t-102.5 135.5t-140 51v143q92 0 169 -42t130 -109.5t94 -160t65 -187t39 -197t20.5 -182.5t5.5 -152t-5.5 -151.5t-20.5 -182.5t-39 -197t-65 -186.5 t-94 -159.5t-130 -109t-169 -42v143z" />
<glyph unicode="*" horiz-adv-x="655" d="M102 1292v92h146l-74 125l82 47l72 -124l71 124l82 -47l-73 -125h145v-92h-145l73 -125l-82 -47l-71 125l-72 -125l-82 47l74 125h-146z" />
<glyph unicode="+" horiz-adv-x="1347" d="M102 717v123h510v510h123v-510h510v-123h-510v-510h-123v510h-510z" />
<glyph unicode="," horiz-adv-x="626" d="M143 -170l127 410l152 -52l-178 -397z" />
<glyph unicode="-" horiz-adv-x="1347" d="M102 717v123h1143v-123h-1143z" />
<glyph unicode="." horiz-adv-x="315" d="M61 76q0 40 28.5 68t68.5 28t68 -28t28 -68t-28 -68t-68 -28t-68.5 28t-28.5 68z" />
<glyph unicode="/" horiz-adv-x="1374" d="M102 -20l1047 1576h123l-1047 -1576h-123z" />
<glyph unicode="0" horiz-adv-x="1105" d="M123 410v716q0 178 125.5 304t304.5 126t304.5 -126t125.5 -304v-716q0 -178 -125.5 -304t-304.5 -126t-304.5 126t-125.5 304zM266 410q0 -118 84 -202.5t203 -84.5t203 84.5t84 202.5v716q0 118 -84 202.5t-203 84.5t-203 -84.5t-84 -202.5v-716z" />
<glyph unicode="1" horiz-adv-x="686" d="M123 1393v143h338v-1536h-144v1393h-194z" />
<glyph unicode="2" horiz-adv-x="1079" d="M123 0v72q0 117 22.5 218.5t61 175.5t88.5 137.5t105.5 111.5t110.5 91t105 82t88.5 78t61 86t22.5 99q0 107 -77 184.5t-183 77.5q-107 0 -184.5 -77.5t-77.5 -184.5h-143q0 166 119 285.5t286 119.5q166 0 285 -119.5t119 -285.5q0 -87 -34 -159.5t-89.5 -126 t-123.5 -104.5t-137 -108.5t-128.5 -124.5t-101 -166t-50.5 -219h688v-143h-833z" />
<glyph unicode="3" horiz-adv-x="1105" d="M123 410h143q0 -118 84 -202.5t203 -84.5t203 84.5t84 202.5t-84 202t-203 84h-39v144h39q119 0 203 84t84 202t-84 202.5t-203 84.5t-203 -84.5t-84 -202.5h-143q0 178 125.5 304t304.5 126t304.5 -126t125.5 -304q0 -111 -51.5 -204.5t-140.5 -153.5 q89 -60 140.5 -153.5t51.5 -204.5q0 -178 -125.5 -304t-304.5 -126t-304.5 126t-125.5 304z" />
<glyph unicode="4" horiz-adv-x="1150" d="M123 369l579 1167h160l-512 -1024h391v451h144v-451h143v-143h-143v-369h-144v369h-618z" />
<glyph unicode="5" horiz-adv-x="1056" d="M123 385h143q0 -109 76.5 -185.5t185.5 -76.5t186 76.5t77 185.5v233q0 109 -77 186t-186 77q-86 0 -154 -50.5t-95 -130.5h-156v836h739v-143h-594v-463q112 94 260 94q169 0 287.5 -118.5t118.5 -287.5v-233q0 -167 -119 -286t-287 -119q-167 0 -286 119t-119 286z" />
<glyph unicode="6" horiz-adv-x="1105" d="M123 410q0 104 57 213l475 913h162l-371 -709q57 13 107 13q179 0 304.5 -126t125.5 -304t-125.5 -304t-304.5 -126t-304.5 126t-125.5 304zM266 410q0 -118 84 -202.5t203 -84.5t203 84.5t84 202.5t-84 202t-203 84t-203 -84t-84 -202z" />
<glyph unicode="7" horiz-adv-x="1032" d="M123 1393v143h827l-616 -1536h-156l559 1393h-614z" />
<glyph unicode="8" horiz-adv-x="1144" d="M123 430q0 184 131 318q32 32 82 63q-80 59 -127 146.5t-47 189.5q0 168 121 289q120 120 290 120q169 0 289.5 -120t120.5 -289q0 -102 -46 -190t-126 -146q45 -28 80 -63q131 -134 131 -318q0 -188 -131 -319t-318 -131q-188 0 -319 131t-131 319zM266 430 q0 -128 90 -217.5t217 -89.5q126 0 216 90t90 217q0 126 -89 215.5t-215 89.5h-2h-4q-126 0 -214.5 -89.5t-88.5 -215.5zM305 1147q0 -110 77.5 -189t186.5 -79h4h2q110 0 187.5 78.5t77.5 189.5q0 110 -78.5 188t-188.5 78q-112 0 -190 -78t-78 -188z" />
<glyph unicode="9" horiz-adv-x="1105" d="M123 1106q0 178 125.5 304t304.5 126t304.5 -126t125.5 -304q0 -104 -57 -213l-475 -913h-162l370 708q-53 -12 -106 -12q-179 0 -304.5 126t-125.5 304zM266 1106q0 -118 84 -202.5t203 -84.5t203 84.5t84 202.5t-84 202.5t-203 84.5t-203 -84.5t-84 -202.5z" />
<glyph unicode=":" horiz-adv-x="602" d="M205 328q0 40 28 68t68 28t68 -28t28 -68t-28 -68.5t-68 -28.5t-68 28.5t-28 68.5zM205 1139q0 40 28 68t68 28t68 -28t28 -68t-28 -68.5t-68 -28.5t-68 28.5t-28 68.5z" />
<glyph unicode=";" horiz-adv-x="626" d="M143 -170l127 410l152 -52l-178 -397zM205 887q0 40 28 68t68 28t68 -28t28 -68t-28 -68t-68 -28t-68 28t-28 68z" />
<glyph unicode="&#x3c;" horiz-adv-x="1095" d="M102 434v129l826 402l63 -127l-698 -342l700 -371l-67 -127z" />
<glyph unicode="=" horiz-adv-x="1095" d="M102 244v123h891v-123h-891zM102 594v123h891v-123h-891z" />
<glyph unicode="&#x3e;" horiz-adv-x="1095" d="M102 125l699 371l-697 342l64 127l823 -402v-129l-821 -436z" />
<glyph unicode="?" horiz-adv-x="944" d="M61 1145q0 170 121 290.5t291 120.5q169 0 289.5 -120.5t120.5 -290.5q0 -148 -96.5 -263.5t-241.5 -140.5v-387h-144v525q70 0 127 13t106.5 42t77 82.5t27.5 128.5q0 110 -78.5 189t-187.5 79t-188.5 -79t-79.5 -189h-144zM377 76q0 40 28 68t68 28t68 -28t28 -68 t-28 -68t-68 -28t-68 28t-28 68z" />
<glyph unicode="@" horiz-adv-x="1026" d="M123 492q0 203 143 346q145 145 348 145q131 0 215 -68q74 -65 74 -157v-506h-100v35q-69 -54 -158 -54q-107 0 -183.5 76t-76.5 183t76.5 182.5t183.5 75.5q84 0 158 -54v62q0 49 -46.5 86t-142.5 37q-161 0 -276 -114t-115 -275t115 -276.5t276 -115.5h279v-100h-279 q-205 0 -348 143t-143 349zM487 492q0 -66 46 -112t112 -46q65 0 111.5 46t46.5 112q0 64 -46.5 110.5t-111.5 46.5q-66 0 -112 -46t-46 -111z" />
<glyph unicode="A" horiz-adv-x="1636" d="M61 0l738 1536h41l735 -1536h-158l-231 481h-735l-230 -481h-160zM520 625h596l-297 622z" />
<glyph unicode="B" horiz-adv-x="1228" d="M205 0v1536h413q175 0 300.5 -125.5t125.5 -300.5q0 -100 -44.5 -194t-125.5 -134q93 -40 152 -145t59 -211q0 -175 -125.5 -300.5t-300.5 -125.5h-454zM348 143h311q117 0 200 83t83 200q0 115 -81.5 200t-196.5 85h-316v-568zM348 854h316q111 0 174 72t63 184 q0 117 -83 200t-200 83h-270v-539z" />
<glyph unicode="C" horiz-adv-x="1579" d="M123 768q0 160 62.5 306t168 251.5t251.5 168t306 62.5q158 0 308 -61.5t256 -173.5l-142 -64q-88 75 -197.5 115.5t-224.5 40.5q-174 0 -322.5 -86.5t-235.5 -235t-87 -323.5q0 -174 87 -322.5t235.5 -235.5t322.5 -87q117 0 226.5 41t197.5 117l142 -64 q-107 -114 -257 -175.5t-309 -61.5q-160 0 -306 62.5t-251.5 168t-168 251.5t-62.5 306z" />
<glyph unicode="D" horiz-adv-x="1484" d="M205 0v1536h344q237 0 415.5 -90t277.5 -263.5t99 -410.5t-99 -412.5t-277.5 -267.5t-415.5 -92h-344zM348 143h201q300 0 474.5 165t174.5 464q0 298 -174 459.5t-475 161.5h-201v-1250z" />
<glyph unicode="E" horiz-adv-x="1150" d="M205 0v1536h782v-143h-633v-430h553v-144h-553v-680h633v-139h-782z" />
<glyph unicode="F" horiz-adv-x="1130" d="M205 0v1536h782v-143h-633v-430h574v-144h-574v-819h-149z" />
<glyph unicode="G" horiz-adv-x="1597" d="M123 768q0 160 62.5 306t168 251.5t251.5 168t306 62.5q158 0 308.5 -62t255.5 -175l-142 -62q-88 75 -197.5 115.5t-224.5 40.5q-174 0 -322.5 -87t-235.5 -235.5t-87 -322.5t87 -322.5t235.5 -235.5t322.5 -87q115 0 224.5 40.5t197.5 115.5v417h-440v144h582v-840 h-142v102q-194 -122 -422 -122q-160 0 -306 62.5t-251.5 168t-168 251.5t-62.5 306z" />
<glyph unicode="H" horiz-adv-x="1501" d="M205 0v1536h143v-573h805v573h143v-1536h-143v819h-805v-819h-143z" />
<glyph unicode="I" horiz-adv-x="833" d="M184 0v143h162v1250h-162v143h465v-143h-160v-1250h160v-143h-465z" />
<glyph unicode="J" horiz-adv-x="741" d="M82 0v158q51 -35 168 -35q58 0 100.5 42.5t42.5 100.5v1270h144v-1270q0 -118 -84 -202t-203 -84q-109 0 -168 20z" />
<glyph unicode="K" horiz-adv-x="1280" d="M205 0v1536h143v-668l668 668h203l-768 -768l768 -768h-203l-668 668v-668h-143z" />
<glyph unicode="L" horiz-adv-x="954" d="M205 0v1536h151v-1393h496v-143h-647z" />
<glyph unicode="M" horiz-adv-x="1619" d="M102 0v1536h33l674 -936l676 936h33v-1536h-144v1139l-565 -785l-563 785v-1139h-144z" />
<glyph unicode="N" horiz-adv-x="1556" d="M205 0v1536h33l970 -1182v1182h144v-1536h-37l-967 1176v-1176h-143z" />
<glyph unicode="O" horiz-adv-x="1830" d="M123 768q0 107 28.5 209t80 188.5t125 159t160 123.5t189 79.5t209.5 28.5q160 0 306.5 -62.5t253 -168t170 -251.5t63.5 -306t-63.5 -306.5t-170 -251.5t-253 -167.5t-306.5 -62.5t-306.5 62.5t-253 167.5t-169.5 251.5t-63 306.5zM266 768q0 -175 88 -323.5t237.5 -235 t323.5 -86.5t324 86.5t238 235t88 323.5t-88 323.5t-238 235t-324 86.5q-175 0 -324.5 -86.5t-237 -235t-87.5 -323.5z" />
<glyph unicode="P" horiz-adv-x="1114" d="M205 0v1536h379q177 0 302.5 -125.5t125.5 -302.5t-125.5 -301.5t-302.5 -124.5h-236v-682h-143zM348 825h236q118 0 201 83t83 200q0 119 -83 202t-201 83h-236v-568z" />
<glyph unicode="Q" horiz-adv-x="1810" d="M123 768q0 107 28.5 209t80 188.5t125 159t160 123.5t189 79.5t209.5 28.5q160 0 306.5 -62.5t253 -168t170 -251.5t63.5 -306q0 -145 -52 -281t-149 -243l162 -164l-102 -100l-166 165q-103 -79 -229 -122t-257 -43q-160 0 -306.5 62.5t-253 167.5t-169.5 251.5 t-63 306.5zM266 768q0 -175 87.5 -323.5t237 -235t324.5 -86.5q214 0 383 125l-200 201l102 102l205 -207q77 88 118.5 197.5t41.5 226.5q0 175 -88 323.5t-238 235t-324 86.5q-175 0 -324.5 -86.5t-237 -235t-87.5 -323.5z" />
<glyph unicode="R" horiz-adv-x="1128" d="M205 0v1536h379q177 0 302.5 -125.5t125.5 -302.5q0 -137 -83.5 -251t-213.5 -155l352 -702h-162l-340 682h-217v-682h-143zM348 825h236q117 0 200.5 83t83.5 200t-83.5 201t-200.5 84h-236v-568z" />
<glyph unicode="S" horiz-adv-x="1173" d="M123 262l133 57q36 -88 126 -141t189 -53q127 0 230.5 81t103.5 204q0 57 -24.5 103t-66 77.5t-95.5 58t-113.5 50.5t-118.5 49.5t-113 59.5t-95.5 76t-66 104t-24.5 138q0 177 127.5 303.5t305.5 126.5q113 0 213 -57.5t157 -155.5l-135 -59q-38 59 -101.5 93t-133.5 34 q-117 0 -202 -84t-85 -201q0 -55 24.5 -100t66 -75.5t95.5 -57t113 -50.5t118.5 -50t113.5 -60.5t95.5 -77t66 -105.5t24.5 -140q0 -122 -70 -222.5t-179.5 -154t-230.5 -53.5q-142 0 -268.5 76.5t-179.5 205.5z" />
<glyph unicode="T" horiz-adv-x="1153" d="M102 1393v143h949v-143h-402v-1393h-143v1393h-404z" />
<glyph unicode="U" horiz-adv-x="1269" d="M205 410v1126h143v-1126q0 -118 84 -202.5t203 -84.5t203 84.5t84 202.5v1126h143v-1126q0 -178 -125.5 -304t-304.5 -126t-304.5 126t-125.5 304z" />
<glyph unicode="V" horiz-adv-x="1636" d="M143 1536h160l516 -1227l516 1227h158l-653 -1536h-41z" />
<glyph unicode="W" horiz-adv-x="2240" d="M61 1536h160l598 -1247l221 465l-374 782h159l295 -616l297 616h158l-375 -782l223 -465l598 1247h158l-735 -1536h-41l-283 588l-280 -588h-41z" />
<glyph unicode="X" horiz-adv-x="1355" d="M82 0l510 772l-504 764h172l418 -635l420 635h170l-504 -764l510 -772h-172l-424 643l-424 -643h-172z" />
<glyph unicode="Y" horiz-adv-x="1304" d="M61 1536h172l418 -635l420 635h172l-520 -786v-750h-143v750z" />
<glyph unicode="Z" horiz-adv-x="1347" d="M102 0l883 1393h-758v143h1018l-885 -1393h885v-143h-1143z" />
<glyph unicode="[" horiz-adv-x="548" d="M102 -20v1576h344v-143h-200v-1290h200v-143h-344z" />
<glyph unicode="\" horiz-adv-x="1374" d="M102 1556h123l1047 -1576h-123z" />
<glyph unicode="]" horiz-adv-x="548" d="M102 -20v143h201v1290h-201v143h344v-1576h-344z" />
<glyph unicode="^" horiz-adv-x="1171" d="M102 713l437 823h127l403 -825l-127 -64l-342 699l-371 -701z" />
<glyph unicode="_" horiz-adv-x="1347" d="M102 0v123h1143v-123h-1143z" />
<glyph unicode="`" horiz-adv-x="638" d="M102 1536h191l244 -362h-191z" />
<glyph unicode="a" horiz-adv-x="1310" d="M123 481q0 136 67.5 251.5t183 183t251.5 67.5q101 0 195.5 -39.5t162.5 -112.5v132h143v-963h-143v131q-68 -73 -162.5 -112t-195.5 -39q-136 0 -251.5 67t-183 182.5t-67.5 251.5zM266 481q0 -148 105.5 -253t253.5 -105t253 105t105 253t-105 253.5t-253 105.5 t-253.5 -105.5t-105.5 -253.5z" />
<glyph unicode="b" horiz-adv-x="1269" d="M184 0v1536h144v-705q68 73 162.5 112.5t195.5 39.5q136 0 251.5 -67.5t183 -183t67.5 -251.5t-67.5 -251.5t-183 -182.5t-251.5 -67q-101 0 -195.5 39t-162.5 112v-131h-144zM328 481q0 -148 105 -253t253 -105t253 105t105 253t-105 253.5t-253 105.5t-253 -105.5 t-105 -253.5z" />
<glyph unicode="c" horiz-adv-x="1208" d="M123 481q0 136 67.5 251.5t183 183t251.5 67.5q149 0 274.5 -83t185.5 -220v2l-131 -57q-43 97 -133 156t-196 59q-148 0 -253.5 -105.5t-105.5 -253.5t105.5 -253t253.5 -105q106 0 196 59t131 156v-2l131 -57q-58 -135 -184 -217t-274 -82q-136 0 -251.5 67t-183 182.5 t-67.5 251.5z" />
<glyph unicode="d" horiz-adv-x="1310" d="M123 481q0 136 67.5 251.5t183 183t251.5 67.5q101 0 195.5 -39.5t162.5 -112.5v705h143v-1536h-143v131q-68 -73 -162.5 -112t-195.5 -39q-136 0 -251.5 67t-183 182.5t-67.5 251.5zM266 481q0 -148 105.5 -253t253.5 -105t253 105t105 253t-105 253.5t-253 105.5 t-253.5 -105.5t-105.5 -253.5z" />
<glyph unicode="e" d="M123 481q0 136 67.5 251.5t183 183t251.5 67.5t251.5 -67.5t182.5 -183t67 -251.5h-860q0 -148 105.5 -253t253.5 -105q106 0 196 59t131 156v-2l131 -57q-58 -135 -184 -217t-274 -82q-136 0 -251.5 67t-183 182.5t-67.5 251.5zM297 625h655q-41 97 -131 156t-196 59 t-196.5 -59t-131.5 -156z" />
<glyph unicode="f" horiz-adv-x="702" d="M123 819v144h145v315q0 118 84 202.5t203 84.5q45 0 86 -15v-157q-36 28 -86 28q-60 0 -101.5 -41.5t-41.5 -101.5v-315h229v-144h-229v-819h-144v819h-145z" />
<glyph unicode="g" horiz-adv-x="1331" d="M143 481q0 207 148 355q147 147 354 147q101 0 192.5 -38t161.5 -109l5 -5v132h143v-963q0 -206 -148 -354t-354 -148q-100 0 -192 38t-162 110q-67 67 -105 151l131 58v2q42 -97 130.5 -156t197.5 -59q149 0 254 105t105 253v131q-4 -4 -5 -4q-70 -71 -161.5 -109 t-192.5 -38q-207 0 -354 147q-148 148 -148 354zM287 481q0 -148 105 -253t253 -105q149 0 254 105t105 253q0 149 -105 254t-254 105q-148 0 -253 -105t-105 -254z" />
<glyph unicode="h" horiz-adv-x="1116" d="M184 0v1536h144v-674q39 53 106 87t150 34q153 0 250.5 -108t97.5 -265v-1v-1v-1v-1v-1v-1v-1v-1v-1v-1v-1v-1v-1v-1v-1v-1v-1v-1v-1v-1v-1v-1v-1v-1v-1v-1v-1v-1v-1v-1v-1v-1v-1v-1v-1v-1v-1v-1v-1v-1v-1v-1v-1v-1v-1v-1v-1v-1v-1v-1v-1v-1v-1v-1v-1v-1v-1v-1v-1v-1v-1 v-1v-1v-1v-1v-1v-1v-1v-1v-1v-1v-1v-1v-1v-1v-1v-1v-1v-1v-1v-1v-1v-1v-1v-1v-1v-1v-1v-1v-1v-1v-1v-1v-1v-1v-1v-1v-1v-1v-1v-1v-1v-1v-1v-1v-1v-1v-1v-1v-1v-1v-1v-1v-1v-1v-1v-1v-1v-1v-1v-1v-1v-1v-1v-1v-1v-1v-1v-1v-1v-1v-1v-1v-1v-1v-1v-1v-1v-1v-1v-1v-1v-1v-1v-1 v-1v-1v-1v-1v-1v-1v-1v-1v-1v-1v-1v-1v-1v-1v-1v-1v-1v-1v-1v-1v-1v-1v-1v-1v-1v-1v-1v-1v-1v-1v-1v-1v-1v-1v-1v-1v-1v-1v-1v-1v-1v-1v-1v-1v-1v-1v-1v-1v-1v-1v-1v-1v-1v-1v-1v-1v-1v-1v-1v-1v-1v-1v-1v-1v-1v-1v-1v-1v-1v-1v-1v-1v-1v-1v-1v-1v-1v-1v-1v-1v-1v-1v-1v-1 v-1v-1v-1v-1v-1v-1v-1v-1v-1v-1v-1v-1v-1v-1v-1v-1v-1v-1v-1v-1v-1v-1v-1v-1v-1v-1v-1v-1v-1v-1v-1v-1v-1v-1v-1v-1v-1v-1v-1v-1v-1v-1v-1v-1v-1v-1v-1v-1v-1v-1v-1v-1v-1v-1v-1v-1v-1v-1v-1v-1v-1v-1v-1v-1v-1v-1v-1v-1v-1v-1v-1v-1v-1v-1v-1v-1v-1v-1v-1v-1v-1v-1v-1v-1 v-1v-1v-1v-1v-1v-1v-1v-1v-1v-1v-1v-1v-1v-1v-1v-1v-1v-1v-1v-1v-1v-1v-1v-1v-1v-1v-1v-1v-1v-1v-1v-1v-1v-1v-1v-1v-1v-1v-1v-1v-1v-1v-1v-1v-1v-1v-1v-1v-1v-1v-1v-1v-1v-1v-1v-1v-1v-1v-1v-1v-1v-1v-1v-1v-1v-1v-1v-1v-1v-1v-1v-1v-1v-1v-1v-1v-1v-1v-1v-1v-1v-1v-1v-1 v-1v-1v-1v-1v-1v-1v-1v-1v-1v-1v-1v-1v-1v-1v-1v-1v-1v-1v-1v-1v-1v-1v-1v-1v-1v-1v-1v-1v-1v-1v-1v-1v-1v-1v-1v-1v-1v-1v-1v-1v-1v-1v-1v-1v-1v-1v-1v-1v-1v-1v-1v-1v-1v-1v-1v-1v-1v-1v-1v-1v-1v-1v-1v-1v-1v-1v-1v-1v-1v-1v-1v-1v-1v-1v-1v-1v-1v-1v-1v-1v-1v-1v-1v-1 v-1v-1v-1v-1v-1v-1v-1v-1v-1v-1v-1v-1v-1v-1v-1v-1v-1v-1v-1v-1v-1v-1v-1v-1v-1v-1v-1v-1v-1v-1v-1v-1v-1v-1v-1v-1v-1v-1v-1v-1v-1v-1v-1v-1v-1v-1v-1v-1v-1v-1v-1v-1v-1v-1v-1v-1v-1v-1v-1v-1v-1v-1v-1v-1v-1v-1v-1v-1v-1v-1v-1v-1v-1v-1v-1v-1v-1v-1v-1v-1v-1v-1v-1v-1 v-1v-1v-1v-1v-1v-1v-1v-1v-1v-1v-1v-1v-1v-1v-1v-1v-1v-1v-1v-1v-1v-1v-1v-1v-1v-1v-1v-1v-1v-1v-1v-1v-1v-1v-1v-10h-144v610q0 97 -62 163.5t-157 66.5t-168 -66t-73 -158v-616h-144z" />
<glyph unicode="i" horiz-adv-x="520" d="M143 1239q0 40 28.5 68t68.5 28t68 -28t28 -68t-28 -68t-68 -28t-68.5 28t-28.5 68zM168 0v963h143v-963h-143z" />
<glyph unicode="j" horiz-adv-x="561" d="M184 1239q0 40 28.5 68t68.5 28t68 -28t28 -68t-28 -68t-68 -28t-68.5 28t-28.5 68zM209 -502v1465h143v-1465h-143z" />
<glyph unicode="k" horiz-adv-x="1019" d="M184 0v1536h144v-932l368 359h207l-471 -459l526 -504h-206l-424 406v-406h-144z" />
<glyph unicode="l" horiz-adv-x="512" d="M184 0v1536h144v-1536h-144z" />
<glyph unicode="m" horiz-adv-x="1720" d="M184 0v963h144v-101q43 57 112 89t144 32q91 0 164.5 -41.5t119.5 -112.5q57 71 142.5 112.5t177.5 41.5q153 0 250.5 -109t97.5 -264v-610h-143v610q0 94 -62 162t-155 68q-95 0 -169.5 -65.5t-74.5 -158.5v-6v-610h-144v610q0 94 -62 162t-157 68q-93 0 -167 -65.5 t-74 -158.5v-616h-144z" />
<glyph unicode="n" horiz-adv-x="1116" d="M184 0v963h144v-101q43 57 112 89t144 32q153 0 250.5 -109t97.5 -264v-610h-144v610q0 94 -62 162t-157 68q-93 0 -167 -65.5t-74 -158.5v-616h-144z" />
<glyph unicode="o" d="M123 481q0 136 67.5 251.5t183 183t251.5 67.5t251.5 -67.5t182.5 -183t67 -251.5q0 -102 -40 -194.5t-107 -159.5t-159.5 -107t-194.5 -40q-136 0 -251.5 67t-183 182.5t-67.5 251.5zM266 481q0 -148 105.5 -253t253.5 -105t253 105t105 253t-105 253.5t-253 105.5 t-253.5 -105.5t-105.5 -253.5z" />
<glyph unicode="p" horiz-adv-x="1310" d="M184 -502v1465h144v-132q68 73 162.5 112.5t195.5 39.5q135 0 250.5 -68t183.5 -183.5t68 -250.5t-68 -250.5t-183.5 -183t-250.5 -67.5q-101 0 -195.5 39t-162.5 112v-633h-144zM328 481q0 -148 105 -253t253 -105t253 105t105 253t-105 253.5t-253 105.5t-253 -105.5 t-105 -253.5z" />
<glyph unicode="q" horiz-adv-x="1310" d="M123 481q0 136 67.5 251.5t183 183t251.5 67.5q101 0 195.5 -39.5t162.5 -112.5v132h143v-1465h-143v633q-68 -73 -162.5 -112t-195.5 -39q-136 0 -251.5 67t-183 182.5t-67.5 251.5zM266 481q0 -148 105.5 -253t253.5 -105t253 105t105 253t-105 253.5t-253 105.5 t-253.5 -105.5t-105.5 -253.5z" />
<glyph unicode="r" horiz-adv-x="747" d="M184 0v963h144v-148q111 168 255 168q50 0 103 -20v-144q-63 22 -117 22q-81 1 -141 -49q-100 -82 -100 -262v-530h-144z" />
<glyph unicode="s" horiz-adv-x="907" d="M143 193l133 57q7 -56 60 -91.5t113 -35.5q65 0 118.5 40.5t53.5 102.5q0 37 -25 65.5t-65 47.5t-88.5 37t-96.5 41t-88 52t-65 77t-25 110q0 118 84 202.5t203 84.5q84 0 155.5 -46.5t106.5 -123.5l-131 -57q-19 38 -54.5 61t-76.5 23q-60 0 -102 -42t-42 -102 q0 -36 25 -63.5t65 -46.5t88 -37t96.5 -41.5t88.5 -53t65 -78t25 -110.5q0 -122 -95.5 -204t-219.5 -82q-66 0 -128.5 25.5t-110.5 74.5t-67 113z" />
<glyph unicode="t" horiz-adv-x="702" d="M143 819v144h125v342h144v-342h188v-144h-188v-819h-144v819h-125z" />
<glyph unicode="u" horiz-adv-x="1120" d="M184 354v609h144v-609q0 -95 68 -163t163 -68q97 0 165.5 68t68.5 163v609h143v-609q0 -155 -110 -264.5t-267 -109.5q-155 0 -265 109.5t-110 264.5z" />
<glyph unicode="v" horiz-adv-x="1044" d="M61 963h160l305 -689h4l295 689h158l-430 -963h-53z" />
<glyph unicode="w" horiz-adv-x="1576" d="M61 963h158l281 -678h4l270 678h25l272 -678h4l281 678h160l-418 -963h-49l-261 639h-4l-260 -639h-49z" />
<glyph unicode="x" horiz-adv-x="1099" d="M61 0l396 481l-396 482h187l301 -369l303 369h186l-395 -482l395 -481h-186l-303 369l-301 -369h-187z" />
<glyph unicode="y" horiz-adv-x="1085" d="M61 963h164l336 -746l303 746h160l-623 -1465h-157l241 559z" />
<glyph unicode="z" horiz-adv-x="1058" d="M82 0v8l623 821h-537v134h809l-625 -832h623v-131h-893z" />
<glyph unicode="{" horiz-adv-x="671" d="M102 713v118q32 13 57 31t41 35t27 44t17 46t8.5 53.5t3 55t0.5 61.5v371q0 105 57.5 187.5t157.5 82.5h98v-133q-89 0 -128.5 -34.5t-39.5 -123.5v-379q0 -111 -36 -207t-117 -149q81 -53 117 -149t36 -207v-381q0 -89 39.5 -123.5t128.5 -34.5v-133h-98 q-100 0 -157.5 82.5t-57.5 187.5v373q0 47 -1 70.5t-5 62.5t-13.5 61.5t-26 49.5t-44 47t-64.5 35z" />
<glyph unicode="|" horiz-adv-x="327" d="M102 -184v1904h123v-1904h-123z" />
<glyph unicode="}" horiz-adv-x="671" d="M102 -123q89 0 128.5 34.5t39.5 123.5v381q0 111 36.5 207t117.5 149q-81 53 -117.5 149t-36.5 207v379q0 89 -39.5 123.5t-128.5 34.5v133h99q100 0 157.5 -82.5t57.5 -187.5v-371q0 -42 0.5 -61.5t3 -55t8 -54t16.5 -45.5t27 -44t41 -35t57 -31v-118 q-28 -12 -50.5 -25.5t-38.5 -32.5t-27 -34.5t-18 -41t-11 -42.5t-5.5 -48.5t-2 -48.5t-0.5 -53v-373q0 -105 -57.5 -187.5t-157.5 -82.5h-99v133z" />
<glyph unicode="~" horiz-adv-x="1253" d="M123 387q120 275 289 275q52 0 116.5 -29t114.5 -64.5t106 -64.5t93 -29q84 0 162 184l126 -53q-113 -278 -288 -278q-52 0 -116 29.5t-114.5 64.5t-106.5 64.5t-93 29.5q-23 0 -46 -14t-38.5 -32t-32.5 -47t-25.5 -46.5t-19.5 -44.5z" />
<glyph unicode="&#xa6;" horiz-adv-x="327" d="M102 -166v819h123v-819h-123zM102 901v819h123v-819h-123z" />
<glyph unicode="&#xa8;" horiz-adv-x="1310" d="M340 1305q0 40 28 68t68 28t68 -28t28 -68t-28 -68.5t-68 -28.5t-68 28.5t-28 68.5zM702 1305q0 40 28.5 68t68.5 28t68 -28t28 -68t-28 -68.5t-68 -28.5t-68.5 28.5t-28.5 68.5z" />
<glyph unicode="&#xa9;" horiz-adv-x="1488" d="M102 768q0 130 51.5 248t137.5 203.5t204.5 136.5t247.5 51q130 0 248.5 -51t205 -136.5t138 -203.5t51.5 -248t-51.5 -248t-138 -203.5t-205 -136.5t-248.5 -51q-129 0 -247.5 51t-204.5 136.5t-137.5 203.5t-51.5 248zM219 768q0 -106 42 -203t112.5 -166.5t167 -111 t202.5 -41.5q142 0 263.5 69.5t192.5 190t71 262.5t-71 262.5t-192.5 190t-263.5 69.5q-106 0 -202.5 -41.5t-167 -111t-112.5 -166.5t-42 -203zM403 772q0 138 99 237t237 99q97 0 180 -56t132 -157l-105 -45q-35 70 -89 106.5t-118 36.5q-91 0 -156 -65t-65 -156t65 -156 t156 -65q62 0 116 34.5t87 98.5q51 -15 109 -37q-49 -101 -132 -156t-180 -55q-138 0 -237 99t-99 237z" />
<glyph unicode="&#xad;" horiz-adv-x="1347" d="M102 717v123h1143v-123h-1143z" />
<glyph unicode="&#xae;" horiz-adv-x="1488" d="M102 768q0 130 51.5 248t137.5 203.5t204.5 136.5t247.5 51q130 0 248.5 -51t205 -136.5t138 -203.5t51.5 -248t-51.5 -248t-138 -203.5t-205 -136.5t-248.5 -51q-129 0 -247.5 51t-204.5 136.5t-137.5 203.5t-51.5 248zM219 768q0 -106 42 -203t112.5 -166.5t167 -111 t202.5 -41.5q142 0 263.5 69.5t192.5 190t71 262.5t-71 262.5t-192.5 190t-263.5 69.5q-106 0 -202.5 -41.5t-167 -111t-112.5 -166.5t-42 -203zM584 457v622h178q82 0 140.5 -54.5t58.5 -129.5q0 -52 -30.5 -96t-80.5 -68l147 -274h-120l-138 256h-47v-256h-108zM692 813 h70q37 0 63.5 24t26.5 58q0 35 -26.5 59.5t-63.5 24.5h-70v-166z" />
<glyph unicode="&#xb0;" horiz-adv-x="536" d="M-254 1303q0 69 48.5 117t117.5 48q68 0 117 -48t49 -117q0 -67 -49 -115.5t-117 -48.5q-69 0 -117.5 48t-48.5 116zM-182 1303q0 -39 27.5 -67t66.5 -28q38 0 66 28.5t28 66.5q0 40 -28 68t-66 28q-40 0 -67 -28t-27 -68z" />
<glyph unicode="&#xb4;" horiz-adv-x="561" d="M162 1174l244 362h190l-244 -362h-190z" />
<glyph unicode="&#xc4;" horiz-adv-x="1636" d="M61 0l738 1536h41l735 -1536h-158l-231 481h-735l-230 -481h-160zM520 625h596l-297 622zM541 1639q0 40 28 68t68 28t68 -28t28 -68t-28 -68.5t-68 -28.5t-68 28.5t-28 68.5zM903 1639q0 40 28.5 68t68.5 28t68 -28t28 -68t-28 -68.5t-68 -28.5t-68.5 28.5t-28.5 68.5z " />
<glyph unicode="&#xc5;" horiz-adv-x="1636" d="M61 0l738 1536h41l735 -1536h-158l-231 481h-735l-230 -481h-160zM520 625h596l-297 622zM649 1634q0 69 48.5 117.5t117.5 48.5q68 0 117 -48.5t49 -117.5q0 -67 -49 -115.5t-117 -48.5q-69 0 -117.5 48t-48.5 116zM721 1634q0 -39 27.5 -66.5t66.5 -27.5q38 0 66 28 t28 66q0 40 -28 68.5t-66 28.5q-39 0 -66.5 -28.5t-27.5 -68.5z" />
<glyph unicode="&#xc7;" horiz-adv-x="1579" d="M123 768q0 160 62.5 306t168 251.5t251.5 168t306 62.5q158 0 308 -61.5t256 -173.5l-142 -64q-88 75 -197.5 115.5t-224.5 40.5q-174 0 -322.5 -86.5t-235.5 -235t-87 -323.5q0 -174 87 -322.5t235.5 -235.5t322.5 -87q117 0 226.5 41t197.5 117l142 -64 q-107 -114 -257 -175.5t-309 -61.5q-160 0 -306 62.5t-251.5 168t-168 251.5t-62.5 306zM889 12h61v-82q4 0 10.5 0.5t26 -0.5t37 -4.5t38.5 -14t36.5 -26.5t26 -43t10.5 -63q0 -50 -15 -85t-35.5 -53t-58 -27.5t-64.5 -11t-73 -1.5v96h15h17.5t17.5 0.5t19.5 2t18 4.5 t17.5 7t14 10.5t12 14.5t7 19t3 24q0 32 -14.5 52.5t-35 27.5t-41.5 9.5t-35 0.5l-15 -2v145z" />
<glyph unicode="&#xc9;" horiz-adv-x="1150" d="M205 0v1536h782v-143h-633v-430h553v-144h-553v-680h633v-139h-782zM414 1620l243 362h191l-244 -362h-190z" />
<glyph unicode="&#xd1;" horiz-adv-x="1556" d="M205 0v1536h33l970 -1182v1182h144v-1536h-37l-967 1176v-1176h-143zM313 1679q44 85 98.5 138t131.5 53q49 0 109 -28t111.5 -55.5t80.5 -27.5q49 0 102 115l127 -45q-92 -193 -229 -193q-49 0 -109 28t-111.5 55.5t-80.5 27.5q-50 0 -100 -109l-3 -6z" />
<glyph unicode="&#xd6;" horiz-adv-x="1830" d="M123 768q0 107 28.5 209t80 188.5t125 159t160 123.5t189 79.5t209.5 28.5q160 0 306.5 -62.5t253 -168t170 -251.5t63.5 -306t-63.5 -306.5t-170 -251.5t-253 -167.5t-306.5 -62.5t-306.5 62.5t-253 167.5t-169.5 251.5t-63 306.5zM266 768q0 -175 88 -323.5t237.5 -235 t323.5 -86.5t324 86.5t238 235t88 323.5t-88 323.5t-238 235t-324 86.5q-175 0 -324.5 -86.5t-237 -235t-87.5 -323.5zM631 1708q0 40 28 68t68 28t68 -28t28 -68t-28 -68.5t-68 -28.5t-68 28.5t-28 68.5zM993 1708q0 40 28.5 68t68.5 28t68 -28t28 -68t-28 -68.5t-68 -28.5 t-68.5 28.5t-28.5 68.5z" />
<glyph unicode="&#xd7;" horiz-adv-x="1347" d="M227 418l361 360l-361 361l86 88l361 -363l362 363l86 -88l-360 -361l360 -360l-86 -88l-362 362l-361 -362z" />
<glyph unicode="&#xd8;" horiz-adv-x="1105" d="M-25 -20l179 268q-31 79 -31 162v716q0 178 125.5 304t304.5 126q106 0 198.5 -48.5t151.5 -131.5l119 180h123l-189 -284q27 -67 27 -146v-716q0 -178 -125.5 -304t-304.5 -126q-102 0 -192 46t-150 124l-113 -170h-123zM266 418l549 825q-34 76 -105 123t-157 47 q-119 0 -203 -84.5t-84 -202.5v-708zM297 279q36 -70 105 -113t151 -43q119 0 203 84.5t84 202.5v686z" />
<glyph unicode="&#xdc;" horiz-adv-x="1269" d="M205 410v1126h143v-1126q0 -118 84 -202.5t203 -84.5t203 84.5t84 202.5v1126h143v-1126q0 -178 -125.5 -304t-304.5 -126t-304.5 126t-125.5 304zM360 1708q0 40 28.5 68t68.5 28t68 -28t28 -68t-28 -68t-68 -28t-68.5 28t-28.5 68zM723 1708q0 40 28 68t68 28t68 -28 t28 -68t-28 -68t-68 -28t-68 28t-28 68z" />
<glyph unicode="&#xe0;" horiz-adv-x="1310" d="M123 481q0 136 67.5 251.5t183 183t251.5 67.5q101 0 195.5 -39.5t162.5 -112.5v132h143v-963h-143v131q-68 -73 -162.5 -112t-195.5 -39q-136 0 -251.5 67t-183 182.5t-67.5 251.5zM266 481q0 -148 105.5 -253t253.5 -105t253 105t105 253t-105 253.5t-253 105.5 t-253.5 -105.5t-105.5 -253.5zM434 1536h191l244 -362h-191z" />
<glyph unicode="&#xe1;" horiz-adv-x="1310" d="M123 481q0 -136 67.5 -251.5t183 -182.5t251.5 -67q101 0 195.5 39t162.5 112v-131h143v963h-143v-132q-68 73 -162.5 112.5t-195.5 39.5q-136 0 -251.5 -67.5t-183 -183t-67.5 -251.5zM266 481q0 148 105.5 253.5t253.5 105.5t253 -105.5t105 -253.5t-105 -253 t-253 -105t-253.5 105t-105.5 253zM414 1174l243 362h191l-244 -362h-190z" />
<glyph unicode="&#xe2;" horiz-adv-x="638" d="M123 481q0 136 67.5 251.5t183 183t251.5 67.5q101 0 195.5 -39.5t162.5 -112.5v132h143v-963h-143v131q-68 -73 -162.5 -112t-195.5 -39q-136 0 -251.5 67t-183 182.5t-67.5 251.5zM215 1174l244 362h190l244 -362h-150l-190 210l-188 -210h-150zM266 481 q0 -148 105.5 -253t253.5 -105t253 105t105 253t-105 253.5t-253 105.5t-253.5 -105.5t-105.5 -253.5z" />
<glyph unicode="&#xe3;" horiz-adv-x="1310" d="M123 481q0 136 67.5 251.5t183 183t251.5 67.5q101 0 195.5 -39.5t162.5 -112.5v132h143v-963h-143v131q-68 -73 -162.5 -112t-195.5 -39q-136 0 -251.5 67t-183 182.5t-67.5 251.5zM164 1200q21 39 40.5 68.5t47.5 60t64 46.5t77 16q49 0 109 -27.5t111.5 -55.5 t80.5 -28q50 0 103 115l127 -45q-92 -193 -230 -193q-49 0 -109 27.5t-111.5 55.5t-80.5 28q-50 0 -98 -107l-4 -8zM266 481q0 -148 105.5 -253t253.5 -105t253 105t105 253t-105 253.5t-253 105.5t-253.5 -105.5t-105.5 -253.5z" />
<glyph unicode="&#xe4;" horiz-adv-x="1310" d="M123 481q0 136 67.5 251.5t183 183t251.5 67.5q101 0 195.5 -39.5t162.5 -112.5v132h143v-963h-143v131q-68 -73 -162.5 -112t-195.5 -39q-136 0 -251.5 67t-183 182.5t-67.5 251.5zM266 481q0 -148 105.5 -253t253.5 -105t253 105t105 253t-105 253.5t-253 105.5 t-253.5 -105.5t-105.5 -253.5zM340 1305q0 40 28 68t68 28t68 -28t28 -68t-28 -68.5t-68 -28.5t-68 28.5t-28 68.5zM702 1305q0 40 28.5 68t68.5 28t68 -28t28 -68t-28 -68.5t-68 -28.5t-68.5 28.5t-28.5 68.5z" />
<glyph unicode="&#xe5;" horiz-adv-x="1310" d="M123 481q0 136 67.5 251.5t183 183t251.5 67.5q101 0 195.5 -39.5t162.5 -112.5v132h143v-963h-143v131q-68 -73 -162.5 -112t-195.5 -39q-136 0 -251.5 67t-183 182.5t-67.5 251.5zM266 481q0 -148 105.5 -253t253.5 -105t253 105t105 253t-105 253.5t-253 105.5 t-253.5 -105.5t-105.5 -253.5zM436 1303q0 69 48.5 117t117.5 48q68 0 117 -48t49 -117q0 -67 -49 -115.5t-117 -48.5q-69 0 -117.5 48t-48.5 116zM508 1303q0 -39 27.5 -67t66.5 -28q38 0 66 28.5t28 66.5q0 40 -28 68t-66 28q-40 0 -67 -28t-27 -68z" />
<glyph unicode="&#xe7;" horiz-adv-x="1208" d="M123 481q0 136 67.5 251.5t183 183t251.5 67.5q149 0 274.5 -83t185.5 -220v2l-131 -57q-43 97 -133 156t-196 59q-148 0 -253.5 -105.5t-105.5 -253.5t105.5 -253t253.5 -105q106 0 196 59t131 156v-2l131 -57q-58 -135 -184 -217t-274 -82q-136 0 -251.5 67t-183 182.5 t-67.5 251.5zM551 12h61v-82q4 0 10.5 0.5t26 -0.5t37 -4.5t38.5 -14t36.5 -26.5t26 -43t10.5 -63q0 -50 -15 -85t-35.5 -53t-58 -27.5t-64.5 -11t-73 -1.5v96h15h17.5t17.5 0.5t19.5 2t18 4.5t17.5 7t14 10.5t12 14.5t7 19t3 24q0 32 -14.5 52.5t-35 27.5t-41.5 9.5 t-35 0.5l-15 -2v145z" />
<glyph unicode="&#xe8;" d="M123 481q0 136 67.5 251.5t183 183t251.5 67.5t251.5 -67.5t182.5 -183t67 -251.5h-860q0 -148 105.5 -253t253.5 -105q106 0 196 59t131 156v-2l131 -57q-58 -135 -184 -217t-274 -82q-136 0 -251.5 67t-183 182.5t-67.5 251.5zM297 625h655q-41 97 -131 156t-196 59 t-196.5 -59t-131.5 -156zM393 1536h191l244 -362h-191z" />
<glyph unicode="&#xe9;" d="M123 481q0 -136 67.5 -251.5t183 -182.5t251.5 -67q148 0 274 82t184 217l-131 57v2q-41 -97 -131 -156t-196 -59q-148 0 -253.5 105t-105.5 253h860q0 136 -67 251.5t-182.5 183t-251.5 67.5t-251.5 -67.5t-183 -183t-67.5 -251.5zM297 625q41 97 131.5 156t196.5 59 t196 -59t131 -156h-655zM414 1174l243 362h191l-244 -362h-190z" />
<glyph unicode="&#xea;" d="M123 481q0 136 67.5 251.5t183 183t251.5 67.5t251.5 -67.5t182.5 -183t67 -251.5h-860q0 -148 105.5 -253t253.5 -105q106 0 196 59t131 156v-2l131 -57q-58 -135 -184 -217t-274 -82q-136 0 -251.5 67t-183 182.5t-67.5 251.5zM203 1174l243 362h191l244 -362h-150 l-190 210l-189 -210h-149zM297 625h655q-41 97 -131 156t-196 59t-196.5 -59t-131.5 -156z" />
<glyph unicode="&#xeb;" d="M123 481q0 136 67.5 251.5t183 183t251.5 67.5t251.5 -67.5t182.5 -183t67 -251.5h-860q0 -148 105.5 -253t253.5 -105q106 0 196 59t131 156v-2l131 -57q-58 -135 -184 -217t-274 -82q-136 0 -251.5 67t-183 182.5t-67.5 251.5zM297 625h655q-41 97 -131 156t-196 59 t-196.5 -59t-131.5 -156zM352 1305q0 40 28.5 68t68.5 28t68 -28t28 -68t-28 -68.5t-68 -28.5t-68.5 28.5t-28.5 68.5zM715 1305q0 40 28 68t68 28t68 -28t28 -68t-28 -68.5t-68 -28.5t-68 28.5t-28 68.5z" />
<glyph unicode="&#xec;" horiz-adv-x="561" d="M33 1536h190l244 -362h-191zM209 0v963h143v-963h-143z" />
<glyph unicode="&#xed;" horiz-adv-x="561" d="M90 1174l244 362h190l-243 -362h-191zM209 0h143v963h-143v-963z" />
<glyph unicode="&#xee;" horiz-adv-x="561" d="M-141 1174l243 362h191l244 -362h-150l-190 210l-189 -210h-149zM209 0v963h143v-963h-143z" />
<glyph unicode="&#xef;" horiz-adv-x="561" d="M0 1305q0 40 28 68t68 28t68.5 -28t28.5 -68t-28.5 -68.5t-68.5 -28.5t-68 28.5t-28 68.5zM209 0v963h143v-963h-143zM362 1305q0 40 28.5 68t68.5 28t68 -28t28 -68t-28 -68.5t-68 -28.5t-68.5 28.5t-28.5 68.5z" />
<glyph unicode="&#xf1;" horiz-adv-x="1116" d="M102 1200q44 85 98.5 138t131.5 53q49 0 109 -27.5t111.5 -55.5t80.5 -28q49 0 102 115l127 -45q-92 -193 -229 -193q-49 0 -109 27.5t-111.5 55.5t-80.5 28q-50 0 -100 -109l-3 -6zM184 0v963h144v-101q43 57 112 89t144 32q153 0 250.5 -109t97.5 -264v-610h-144v610 q0 94 -62 162t-157 68q-93 0 -167 -65.5t-74 -158.5v-616h-144z" />
<glyph unicode="&#xf2;" d="M123 481q0 136 67.5 251.5t183 183t251.5 67.5t251.5 -67.5t182.5 -183t67 -251.5q0 -102 -40 -194.5t-107 -159.5t-159.5 -107t-194.5 -40q-136 0 -251.5 67t-183 182.5t-67.5 251.5zM266 481q0 -148 105.5 -253t253.5 -105t253 105t105 253t-105 253.5t-253 105.5 t-253.5 -105.5t-105.5 -253.5zM383 1536h191l244 -362h-191z" />
<glyph unicode="&#xf3;" d="M123 481q0 -136 67.5 -251.5t183 -182.5t251.5 -67q102 0 194.5 40t159.5 107t107 159.5t40 194.5q0 136 -67 251.5t-182.5 183t-251.5 67.5t-251.5 -67.5t-183 -183t-67.5 -251.5zM266 481q0 148 105.5 253.5t253.5 105.5t253 -105.5t105 -253.5t-105 -253t-253 -105 t-253.5 105t-105.5 253zM387 1174l244 362h190l-243 -362h-191z" />
<glyph unicode="&#xf4;" d="M88 1174l244 362h190l244 -362h-150l-190 210l-188 -210h-150zM123 481q0 136 67.5 251.5t183 183t251.5 67.5t251.5 -67.5t182.5 -183t67 -251.5q0 -102 -40 -194.5t-107 -159.5t-159.5 -107t-194.5 -40q-136 0 -251.5 67t-183 182.5t-67.5 251.5zM266 481 q0 -148 105.5 -253t253.5 -105t253 105t105 253t-105 253.5t-253 105.5t-253.5 -105.5t-105.5 -253.5z" />
<glyph unicode="&#xf5;" d="M123 481q0 136 67.5 251.5t183 183t251.5 67.5t251.5 -67.5t182.5 -183t67 -251.5q0 -102 -40 -194.5t-107 -159.5t-159.5 -107t-194.5 -40q-136 0 -251.5 67t-183 182.5t-67.5 251.5zM164 1200q21 39 40.5 68.5t47.5 60t64 46.5t77 16q49 0 109 -27.5t111.5 -55.5 t80.5 -28q50 0 103 115l127 -45q-92 -193 -230 -193q-49 0 -109 27.5t-111.5 55.5t-80.5 28q-50 0 -98 -107l-4 -8zM266 481q0 -148 105.5 -253t253.5 -105t253 105t105 253t-105 253.5t-253 105.5t-253.5 -105.5t-105.5 -253.5z" />
<glyph unicode="&#xf6;" d="M123 481q0 136 67.5 251.5t183 183t251.5 67.5t251.5 -67.5t182.5 -183t67 -251.5q0 -102 -40 -194.5t-107 -159.5t-159.5 -107t-194.5 -40q-136 0 -251.5 67t-183 182.5t-67.5 251.5zM266 481q0 -148 105.5 -253t253.5 -105t253 105t105 253t-105 253.5t-253 105.5 t-253.5 -105.5t-105.5 -253.5zM340 1305q0 40 28 68t68 28t68 -28t28 -68t-28 -68.5t-68 -28.5t-68 28.5t-28 68.5zM702 1305q0 40 28.5 68t68.5 28t68 -28t28 -68t-28 -68.5t-68 -28.5t-68.5 28.5t-28.5 68.5z" />
<glyph unicode="&#xf7;" horiz-adv-x="1347" d="M102 717v123h1143v-123h-1143zM590 461q0 40 28 68t68 28t68 -28t28 -68t-28 -68t-68 -28t-68 28t-28 68zM590 1100q0 40 28 68t68 28t68 -28t28 -68t-28 -68t-68 -28t-68 28t-28 68z" />
<glyph unicode="&#xf9;" horiz-adv-x="1120" d="M184 354v609h144v-609q0 -95 68 -163t163 -68q97 0 165.5 68t68.5 163v609h143v-609q0 -155 -110 -264.5t-267 -109.5q-155 0 -265 109.5t-110 264.5zM305 1536h191l243 -362h-190z" />
<glyph unicode="&#xfa;" horiz-adv-x="1120" d="M184 354v609h144v-609q0 -95 68 -163t163 -68q97 0 165.5 68t68.5 163v609h143v-609q0 -155 -110 -264.5t-267 -109.5q-155 0 -265 109.5t-110 264.5zM414 1174l243 362h191l-244 -362h-190z" />
<glyph unicode="&#xfb;" horiz-adv-x="1120" d="M131 1174l244 362h190l244 -362h-150l-190 210l-188 -210h-150zM184 354q0 -155 110 -264.5t265 -109.5q157 0 267 109.5t110 264.5v609h-143v-609q0 -95 -68.5 -163t-165.5 -68q-95 0 -163 68t-68 163v609h-144v-609z" />
<glyph unicode="&#xfc;" horiz-adv-x="1120" d="M184 354v609h144v-609q0 -95 68 -163t163 -68q97 0 165.5 68t68.5 163v609h143v-609q0 -155 -110 -264.5t-267 -109.5q-155 0 -265 109.5t-110 264.5zM283 1317q0 40 28 68t68 28t68 -28t28 -68t-28 -68t-68 -28t-68 28t-28 68zM645 1317q0 40 28 68t68 28t68.5 -28 t28.5 -68t-28.5 -68t-68.5 -28t-68 28t-28 68z" />
<glyph unicode="&#x2c6;" horiz-adv-x="882" d="M102 1174l244 362h191l243 -362h-149l-191 210l-188 -210h-150z" />
<glyph unicode="&#x2dc;" horiz-adv-x="964" d="M102 1200q44 85 98.5 138t131.5 53q49 0 109 -27.5t111.5 -55.5t80.5 -28q49 0 102 115l127 -45q-92 -193 -229 -193q-49 0 -109 27.5t-111.5 55.5t-80.5 28q-50 0 -100 -109l-3 -6z" />
<glyph unicode="&#x2000;" horiz-adv-x="991" />
<glyph unicode="&#x2001;" horiz-adv-x="1982" />
<glyph unicode="&#x2002;" horiz-adv-x="991" />
<glyph unicode="&#x2003;" horiz-adv-x="1982" />
<glyph unicode="&#x2004;" horiz-adv-x="660" />
<glyph unicode="&#x2005;" horiz-adv-x="495" />
<glyph unicode="&#x2006;" horiz-adv-x="330" />
<glyph unicode="&#x2007;" horiz-adv-x="330" />
<glyph unicode="&#x2008;" horiz-adv-x="247" />
<glyph unicode="&#x2009;" horiz-adv-x="396" />
<glyph unicode="&#x200a;" horiz-adv-x="110" />
<glyph unicode="&#x2010;" horiz-adv-x="1347" d="M102 717v123h1143v-123h-1143z" />
<glyph unicode="&#x2011;" horiz-adv-x="1347" d="M102 717v123h1143v-123h-1143z" />
<glyph unicode="&#x2012;" horiz-adv-x="1347" d="M102 717v123h1143v-123h-1143z" />
<glyph unicode="&#x2013;" horiz-adv-x="1228" d="M102 717v123h1024v-123h-1024z" />
<glyph unicode="&#x2014;" horiz-adv-x="1757" d="M102 717v123h1553v-123h-1553z" />
<glyph unicode="&#x2018;" horiz-adv-x="319" d="M20 1511l152 52l127 -410l-100 -39z" />
<glyph unicode="&#x2019;" horiz-adv-x="319" d="M20 1153l127 410l152 -52l-178 -397z" />
<glyph unicode="&#x201c;" horiz-adv-x="751" d="M123 918v589h158v-589h-158zM471 918v589h158v-589h-158z" />
<glyph unicode="&#x201d;" horiz-adv-x="751" d="M123 918v589h158v-589h-158zM471 918v589h158v-589h-158z" />
<glyph unicode="&#x2022;" horiz-adv-x="561" d="M141 489q0 57 41.5 97.5t98.5 40.5q58 0 98.5 -40.5t40.5 -97.5q0 -59 -40 -99t-99 -40q-57 0 -98.5 40.5t-41.5 98.5z" />
<glyph unicode="&#x202f;" horiz-adv-x="396" />
<glyph unicode="&#x205f;" horiz-adv-x="495" />
<glyph unicode="&#x2122;" horiz-adv-x="1378" d="M61 1204v101h463v-101h-180v-626h-102v626h-181zM623 578v727h43l295 -408l292 408h43v-727h-100v473l-235 -328l-236 328v-473h-102z" />
<glyph unicode="&#x25fc;" horiz-adv-x="962" d="M0 0v963h963v-963h-963z" />
</font>
</defs>
</svg>
